<?xml version="1.0" standalone="no"?>
<!DOCTYPE svg PUBLIC "-//W3C//DTD SVG 20010904//EN"
 "http://www.w3.org/TR/2001/REC-SVG-20010904/DTD/svg10.dtd">
<svg version="1.0" xmlns="http://www.w3.org/2000/svg"
 width="54.000000pt" height="54.000000pt" viewBox="0 0 54.000000 54.000000"
 preserveAspectRatio="xMidYMid meet">
<metadata>
Created by potrace 1.16, written by Peter Selinger 2001-2019
</metadata>
<g transform="translate(0.000000,54.000000) scale(0.100000,-0.100000)"
fill="#000000" stroke="none">
<path d="M0 270 l0 -270 270 0 270 0 0 270 0 270 -270 0 -270 0 0 -270z m500
126 c0 -15 -11 -20 -70 -31 -58 -11 -68 -15 -74 -31 -4 -12 -2 -15 9 -10 25 9
17 -14 -9 -25 -13 -6 -28 -25 -34 -45 -13 -44 3 -44 22 0 15 36 78 86 110 86
21 0 19 -27 -8 -92 -16 -38 -19 -39 -81 -43 -11 -1 -30 -7 -42 -13 -14 -8 -24
-8 -28 -2 -3 5 -19 1 -38 -10 -18 -11 -45 -20 -61 -20 -27 0 -28 2 -22 32 4
18 13 40 22 48 14 13 15 11 9 -21 -7 -35 -6 -36 19 -32 29 6 34 18 10 27 -29
11 -11 48 36 73 52 27 89 61 55 49 -52 -18 -135 -77 -197 -140 -72 -73 -88
-69 -42 9 l25 44 -32 3 c-18 2 -34 8 -36 15 -3 8 6 10 31 6 29 -4 39 -1 60 22
31 34 33 27 6 -25 -11 -22 -20 -42 -20 -46 0 -4 24 16 53 44 59 55 149 105
230 127 69 18 97 18 97 1z"/>
</g>
</svg>
